<?xml version="1.0" standalone="no"?>
<!DOCTYPE svg PUBLIC "-//W3C//DTD SVG 20010904//EN"
 "http://www.w3.org/TR/2001/REC-SVG-20010904/DTD/svg10.dtd">
<svg version="1.0" xmlns="http://www.w3.org/2000/svg"
 width="640.000000pt" height="640.000000pt" viewBox="0 0 640.000000 640.000000"
 preserveAspectRatio="xMidYMid meet">
<metadata>
Created by potrace 1.14, written by Peter Selinger 2001-2017
</metadata>
<g transform="translate(0.000000,640.000000) scale(0.100000,-0.100000)"
fill="#000000" stroke="none">
<path d="M3128 4845 c-2 -2 -30 -6 -63 -9 -33 -4 -67 -9 -75 -11 -8 -2 -28 -6
-43 -9 -15 -3 -54 -12 -85 -22 -31 -9 -61 -17 -67 -19 -44 -10 -168 -63 -265
-113 -221 -114 -401 -265 -559 -467 -34 -44 -84 -120 -91 -141 -5 -13 -15 -24
-21 -24 -7 0 -10 -3 -6 -6 3 -3 -4 -23 -16 -43 -13 -20 -32 -56 -42 -81 -11
-25 -22 -47 -25 -50 -12 -10 -81 -231 -102 -327 -18 -84 -21 -129 -20 -313 0
-193 3 -227 26 -330 45 -204 80 -305 152 -441 13 -26 30 -57 36 -71 26 -50
113 -178 120 -178 4 0 8 -6 8 -13 0 -7 8 -20 17 -29 10 -9 36 -37 58 -63 43
-52 119 -125 175 -171 19 -16 37 -31 40 -34 9 -11 145 -97 201 -129 168 -94
389 -164 591 -188 82 -9 308 -9 378 0 143 19 195 30 305 65 28 9 52 17 55 17
17 3 63 21 117 46 34 16 66 29 72 29 5 0 11 3 13 8 2 4 30 21 63 37 33 17 64
33 70 38 5 4 62 44 125 89 135 97 324 280 399 388 61 87 101 161 101 188 0 22
-58 121 -106 179 -57 69 -83 61 -161 -51 -77 -108 -218 -253 -328 -336 -84
-63 -276 -178 -307 -184 -7 -1 -31 -10 -53 -20 -99 -43 -283 -83 -420 -92 -49
-3 -99 -7 -110 -8 -11 -1 -24 0 -28 2 -4 2 -34 5 -65 7 -106 5 -239 45 -362
108 -75 39 -183 109 -208 134 -7 7 -17 13 -22 13 -14 0 -230 220 -230 234 0 8
-7 16 -15 20 -8 3 -15 12 -15 20 0 7 -7 16 -15 20 -8 3 -15 10 -15 16 0 6 -13
30 -28 53 -98 145 -181 366 -197 531 -10 108 0 361 15 361 1 0 3 9 4 20 12 89
72 262 119 340 6 11 25 43 41 70 83 139 225 276 371 357 122 68 258 118 359
134 21 3 48 8 60 11 37 10 369 11 426 2 30 -5 70 -11 87 -14 260 -41 449 -159
580 -360 25 -38 52 -76 61 -82 17 -14 64 -17 76 -5 4 4 11 7 14 8 25 2 63 31
75 56 13 27 11 43 -20 176 -19 81 -38 165 -43 187 -4 22 -10 49 -13 60 -13 58
-20 105 -22 149 -2 26 -8 58 -15 70 -31 57 -106 76 -173 44 l-38 -19 -149 51
c-82 28 -161 53 -177 56 -15 3 -41 9 -58 14 -39 11 -155 30 -225 37 -58 5
-308 11 -312 8z"/>
</g>
</svg>
