<?xml version="1.0" encoding="UTF-8" standalone="no"?>
<svg
   xmlns:dc="http://purl.org/dc/elements/1.1/"
   xmlns:cc="http://creativecommons.org/ns#"
   xmlns:rdf="http://www.w3.org/1999/02/22-rdf-syntax-ns#"
   xmlns:svg="http://www.w3.org/2000/svg"
   xmlns="http://www.w3.org/2000/svg"
   width="788.54218"
   height="355.93277"
   viewBox="0 0 208.63511 94.173881"
   version="1.1"
   id="svg1667">
  <defs
     id="defs1661" />
  <metadata
     id="metadata1664">
    <rdf:RDF>
      <cc:Work
         rdf:about="">
        <dc:format>image/svg+xml</dc:format>
        <dc:type
           rdf:resource="http://purl.org/dc/dcmitype/StillImage" />
        <dc:title></dc:title>
      </cc:Work>
    </rdf:RDF>
  </metadata>
  <g
     id="layer1"
     transform="translate(-31.149108,-88.37972)">
    <g
       id="g1250"
       transform="translate(-39.803458,-102.31627)">
      <g
         aria-label="Clark's"
         id="text1404"
         style="font-style:normal;font-variant:normal;font-weight:normal;font-stretch:normal;font-size:65.7686px;line-height:1.25;font-family:'Della Respira';-inkscape-font-specification:'Della Respira, Normal';font-variant-ligatures:normal;font-variant-caps:normal;font-variant-numeric:normal;font-variant-east-asian:normal;fill:#272b22;fill-opacity:1;stroke:none;stroke-width:0.822105">
        <path
           d="m 99.99474,243.85385 q 7.78592,0 13.9182,-3.514 6.16672,-3.514 10.12858,-9.43956 0.44787,-0.72347 0.65457,-0.44787 0.24116,0.27561 0.58567,0.75792 l 1.06798,1.5503 q 0.51676,0.86127 0.37896,1.06798 -2.06706,4.20302 -6.92465,8.23378 -8.9917,7.51032 -19.80931,7.51032 -6.270078,0 -11.747783,-2.41157 -5.477706,-2.44602 -9.232862,-6.51124 -3.755157,-4.06521 -5.925569,-9.50847 -2.13596,-5.4777 -2.13596,-11.33437 0,-5.85667 2.308215,-11.19657 2.342667,-5.37435 6.235627,-9.26731 3.892961,-3.92741 9.232862,-6.27008 5.339902,-2.37712 10.783156,-2.37712 6.476784,0 13.056924,2.51493 l 1.58474,0.58566 q 0.34451,0.13781 0.96463,-0.27561 0.62012,-0.41341 1.30914,-0.41341 0.68902,0 1.06798,0.65457 0.1378,0.10335 0.10335,0.72347 -0.0689,0.99908 0.82682,4.58198 l 0.86128,3.78961 q 0.34451,1.48139 0.34451,1.8948 0,0.20671 -0.89573,0.65457 -0.86127,0.41341 -0.99908,0.17226 -2.85943,-4.99539 -7.20025,-6.8902 -4.30637,-1.8948 -10.783157,-1.8948 -6.442333,0 -11.64443,2.92833 -5.202098,2.92833 -8.027078,8.16488 -2.82498,5.2021 -2.82498,11.81669 0,4.34082 1.998156,8.785 1.998157,4.40972 5.133196,7.78592 3.16949,3.34174 7.338058,5.4777 4.168569,2.10151 8.268235,2.10151 z"
           style="font-style:normal;font-variant:normal;font-weight:normal;font-stretch:normal;font-size:70.5556px;font-family:'Della Respira';-inkscape-font-specification:'Della Respira, Normal';font-variant-ligatures:normal;font-variant-caps:normal;font-variant-numeric:normal;font-variant-east-asian:normal;fill:#272b22;fill-opacity:1;stroke-width:0.822105"
           id="path2869" />
        <path
           d="m 132.30976,197.10388 0.0344,-0.62012 q 0,-0.17226 0.17225,-0.27561 0.20671,-0.1378 0.24116,-0.17225 l 6.20118,-4.58198 q 0.1378,-0.10336 0.34451,-0.10336 1.51584,0 1.51584,1.06798 v 49.3338 q 0,0.24116 -0.0345,0.75793 0,0.51676 0,0.72347 0.2067,2.27376 1.44694,2.68717 1.24023,0.51677 1.24023,0.89573 0,0.96463 -0.44786,0.96463 h -10.12859 q -0.44786,0 -0.44786,-0.62012 0,-0.62012 0.27561,-0.79237 0.27561,-0.17226 0.72347,-0.34451 0.44786,-0.17226 0.68902,-0.41342 0.27561,-0.2756 0.48231,-0.58566 0.20671,-0.34451 0.31006,-0.55122 0.10335,-0.24116 0.13781,-0.65457 0.0689,-0.44786 0.0689,-0.58566 v -43.30488 q 0,-1.13689 -0.55122,-1.58475 -0.51676,-0.48231 -1.13688,-0.51676 -0.62012,-0.0344 -0.82682,-0.20671 -0.31006,-0.2067 -0.31006,-0.51676 z"
           style="font-style:normal;font-variant:normal;font-weight:normal;font-stretch:normal;font-size:70.5556px;font-family:'Della Respira';-inkscape-font-specification:'Della Respira, Normal';font-variant-ligatures:normal;font-variant-caps:normal;font-variant-numeric:normal;font-variant-east-asian:normal;fill:#272b22;fill-opacity:1;stroke-width:0.822105"
           id="path2871" />
        <path
           d="m 154.63399,239.06517 q 0,2.30821 1.99816,3.47955 1.99815,1.13688 4.06521,1.13688 2.06706,0 3.06614,-0.17226 1.03353,-0.17225 2.10151,-0.62011 1.99816,-0.82683 3.54845,-1.72255 0,0 1.6192,-0.89573 l -1.99816,-9.16396 q -1.24024,0.48232 -3.06614,1.06798 l -3.30729,1.03353 q -8.02708,2.41157 -8.02708,5.85667 z m 13.74594,-11.50663 q -1.03353,-9.43957 -5.4777,-9.43957 -2.72163,0 -4.75424,1.96371 -1.99816,1.92925 -1.99816,4.54753 l 0.31006,1.41249 q 0,0.27561 -0.68902,0.86127 -0.65457,0.58567 -0.89572,0.37896 l -3.99632,-5.13319 q 0,-0.44787 0.75793,-0.99908 0.79237,-0.55122 1.34358,-1.10243 l 0.82683,-0.79237 q 1.79145,-1.79146 2.51492,-2.27377 l 1.6881,-1.10243 q 2.48047,-1.6192 5.51215,-1.6192 4.44418,0 6.75239,2.41157 1.58475,1.65365 2.20487,3.27285 0.62011,1.58474 0.89572,2.58382 0.58567,2.13596 0.96463,4.96094 l 0.37896,2.65272 q 0.20671,1.58475 0.41341,2.96279 0.24116,1.37804 0.31006,1.8948 0.0689,0.48232 0.34451,1.757 0.27561,1.24024 0.51677,2.06706 0.72347,2.44602 1.68809,3.68626 0.96463,1.20578 2.13596,1.20578 1.20579,0 1.6881,-0.68902 0.89573,-1.30914 1.30914,-1.30914 0.20671,0 0.68902,0.48232 0.48231,0.48231 0.48231,0.72347 0,0.24115 -1.10243,1.61919 -1.06798,1.34359 -2.44602,2.65273 -1.34359,1.30914 -1.92925,1.30914 -2.20487,0 -4.20302,-1.72255 -1.96371,-1.757 -2.41157,-3.68626 -1.13688,1.03353 -3.85851,2.51492 -5.37435,2.89389 -8.61274,2.89389 -3.2384,0 -5.47771,-0.93018 -2.20486,-0.93018 -3.68625,-2.85943 -1.44695,-1.92926 -1.44695,-4.03077 0,-2.10151 0.58567,-3.514 0.58567,-1.41249 1.51584,-2.41156 0.93018,-1.03353 2.30822,-1.89481 1.37804,-0.89572 2.79053,-1.48139 2.96278,-1.20578 6.54568,-2.13596 3.61736,-0.96463 5.51216,-1.6881 z"
           style="font-style:normal;font-variant:normal;font-weight:normal;font-stretch:normal;font-size:70.5556px;font-family:'Della Respira';-inkscape-font-specification:'Della Respira, Normal';font-variant-ligatures:normal;font-variant-caps:normal;font-variant-numeric:normal;font-variant-east-asian:normal;fill:#272b22;fill-opacity:1;stroke-width:0.822105"
           id="path2873" />
        <path
           d="m 188.2926,220.7028 0.0345,-0.62012 q 0,-0.17226 0.17226,-0.27561 0.2067,-0.1378 0.24115,-0.17225 l 6.20118,-4.58198 q 0.1378,-0.10336 0.75792,-0.10336 0.65457,0 0.89573,0.17226 0.24115,0.1378 0.24115,0.89572 v 5.92557 q 0.20671,-0.34451 0.55122,-0.75792 2.48047,-3.10059 5.16764,-4.78869 2.68718,-1.68809 6.13228,-1.68809 1.10243,0 1.20578,0.2756 0.58567,1.58475 0.96463,2.99724 l 1.06798,4.06521 q 0.10335,0.37897 -0.55122,0.75793 -0.62011,0.34451 -0.96462,0.31005 -0.34451,-0.0344 -0.72347,-0.65456 l -0.37896,-0.62012 q -1.86036,-1.72255 -4.34083,-1.34359 -2.44602,0.34451 -4.65088,1.79145 -2.17041,1.44694 -3.20394,3.13504 -0.0345,0.0689 -0.17226,0.27561 -0.10335,0.17225 -0.10335,0.24116 v 15.81299 q 0,0.17226 -0.0345,0.75793 0,0.55121 0,0.72347 0.27561,2.17041 1.48139,2.68717 1.20579,0.51677 1.24024,0.89573 0,0.96463 -0.44786,0.96463 h -10.19749 q -0.44787,0 -0.44787,-0.62012 0,-0.62012 0.27561,-0.79237 0.27561,-0.17226 0.68902,-0.34451 0.44786,-0.17226 0.68902,-0.41342 0.51676,-0.51676 0.79237,-1.17133 0.31006,-0.68902 0.27561,-1.6192 0,-0.93017 0,-1.06798 v -18.22456 q -0.0344,-1.13689 -0.58567,-1.58475 -0.51676,-0.48231 -1.13688,-0.51676 -0.62012,-0.0344 -0.82682,-0.17226 -0.31006,-0.24115 -0.31006,-0.55121 z"
           style="font-style:normal;font-variant:normal;font-weight:normal;font-stretch:normal;font-size:70.5556px;font-family:'Della Respira';-inkscape-font-specification:'Della Respira, Normal';font-variant-ligatures:normal;font-variant-caps:normal;font-variant-numeric:normal;font-variant-east-asian:normal;fill:#272b22;fill-opacity:1;stroke-width:0.822105"
           id="path2875" />
        <path
           d="m 224.29386,241.75234 -0.0344,1.4814 q 0,0.75792 0.34451,1.61919 0.37896,0.82683 1.34359,1.20579 0.96463,0.37896 0.99908,0.75792 0,0.96463 -0.44787,0.96463 h -10.12858 q -0.44787,0 -0.44787,-0.62012 0,-0.62012 0.27561,-0.79237 0.27561,-0.17226 0.68902,-0.34451 0.44786,-0.17226 0.68902,-0.41342 0.27561,-0.2756 0.48231,-0.58566 0.20671,-0.34451 0.31006,-0.55122 0.13781,-0.24116 0.17226,-0.65457 0.0689,-0.44786 0.0689,-0.58566 v -43.30488 q 0,-1.13689 -0.55122,-1.58475 -0.51676,-0.48231 -1.13688,-0.51676 -0.62012,-0.0344 -0.82682,-0.20671 -0.31006,-0.2067 -0.31006,-0.51676 l 0.0344,-0.62012 q 0,-0.17226 0.17226,-0.27561 0.2067,-0.1378 0.24115,-0.17225 l 6.20118,-4.58198 q 0.1378,-0.10336 0.72347,-0.10336 0.62012,0 0.86127,0.17226 0.27561,0.1378 0.27561,0.89572 v 37.00035 h 0.0689 l 11.23102,-10.71425 q 0.58567,-0.58567 0.58567,-1.13688 0,-0.86128 -0.82682,-1.06798 -0.82683,-0.20671 -0.79238,-0.58567 0,-0.96463 0.44787,-0.96463 h 7.92372 q 0.44786,0 0.44786,0.62012 0,0.62012 -0.2067,0.89573 -0.20671,0.24115 -0.65457,0.62011 -0.41341,0.34451 -0.55122,0.48232 l -10.33529,9.85298 v 0.10335 l 10.26639,14.74502 q 2.96279,3.61735 2.96279,4.58198 0,0.93018 -0.44787,0.93018 h -8.64719 q -0.44787,0 -0.44787,-0.58567 0,-0.62012 0.44787,-0.89573 1.37804,-0.79237 1.37804,-1.20578 0,-0.68902 -0.20671,-0.89573 l -9.16396,-13.09137 h -0.1378 l -3.34175,3.23839 z"
           style="font-style:normal;font-variant:normal;font-weight:normal;font-stretch:normal;font-size:70.5556px;font-family:'Della Respira';-inkscape-font-specification:'Della Respira, Normal';font-variant-ligatures:normal;font-variant-caps:normal;font-variant-numeric:normal;font-variant-east-asian:normal;fill:#272b22;fill-opacity:1;stroke-width:0.822105"
           id="path2877" />
        <path
           d="m 246.4114,197.82735 q -1.48139,-1.34359 -0.89573,-2.13596 l 3.85851,-4.16857 q 0.44786,-0.37896 0.89573,0 l 3.99631,4.16857 q 0.37896,0.55121 0,1.06798 0,0 -2.27376,2.44602 l -6.27008,7.51031 q -0.72347,0.86127 -1.99816,-0.48231 -0.24116,-0.24116 1.27469,-2.23932 1.55029,-2.03261 2.03261,-2.72163 0.96462,-1.34358 0.0689,-2.82498 -0.0689,-0.0344 -0.68902,-0.62011 z"
           style="font-style:normal;font-variant:normal;font-weight:normal;font-stretch:normal;font-size:70.5556px;font-family:'Della Respira';-inkscape-font-specification:'Della Respira, Normal';font-variant-ligatures:normal;font-variant-caps:normal;font-variant-numeric:normal;font-variant-east-asian:normal;fill:#272b22;fill-opacity:1;stroke-width:0.822105"
           id="path2879" />
        <path
           d="m 278.34745,221.97748 q 0,0.37896 -0.68902,0.37896 -0.68902,-0.0344 -0.82682,-0.0344 -0.41342,0 -0.62012,-0.58566 -0.75792,-1.79145 -3.16949,-2.92834 -2.41157,-1.17133 -4.71979,-1.17133 -2.30821,0 -3.99631,1.13688 -1.6881,1.13688 -1.6881,2.89388 0,1.72255 1.5503,2.89389 1.55029,1.17133 3.13504,2.0326 1.61919,0.82683 2.13596,1.13689 l 3.27284,1.86035 q 4.40972,2.41157 5.85667,5.09874 0.99907,1.86036 0.99907,4.58198 0,2.68718 -1.55029,4.92649 -2.99724,4.30638 -10.02524,4.30638 -3.5829,0 -8.61274,-1.24024 -0.1378,-0.0689 -0.48231,-0.1378 -0.34451,-0.0689 -0.65457,-0.20671 -0.27561,-0.1378 -0.31006,-0.72347 -0.0344,-0.58567 -0.44786,-2.41157 -0.41342,-1.86035 -0.41342,-2.37712 0,-0.51676 0.0689,-0.62011 0.10335,-0.13781 0.2067,-0.20671 0.10336,-0.10335 0.31006,-0.17225 0.20671,-0.10336 0.31006,-0.13781 0.10335,-0.0344 0.31006,-0.10335 0.79237,-0.24116 1.44694,0.79237 0.68902,0.99908 3.89296,2.27377 3.23839,1.24023 5.58106,1.24023 2.34267,0 3.78961,-1.17133 1.48139,-1.20579 1.48139,-3.20394 0,-2.79053 -3.34175,-4.54753 l -6.20117,-3.3073 q -2.51492,-1.41249 -3.41065,-2.17041 -2.13596,-1.86035 -2.99723,-3.54845 -0.86128,-1.6881 -0.86128,-3.82406 0,-4.20302 3.10059,-6.30453 3.13504,-2.10151 8.57829,-2.10151 2.41157,0 5.30545,0.34451 2.92834,0.34451 3.61736,1.06798 0.10335,0.10336 0.10335,2.61828 0.0345,2.51492 -0.0344,3.6518 z"
           style="font-style:normal;font-variant:normal;font-weight:normal;font-stretch:normal;font-size:70.5556px;font-family:'Della Respira';-inkscape-font-specification:'Della Respira, Normal';font-variant-ligatures:normal;font-variant-caps:normal;font-variant-numeric:normal;font-variant-east-asian:normal;fill:#272b22;fill-opacity:1;stroke-width:0.822105"
           id="path2881" />
      </g>
      <g
         aria-label="Natural Goods"
         id="text1408"
         style="font-style:normal;font-variant:normal;font-weight:normal;font-stretch:normal;font-size:32.8841px;line-height:1.25;font-family:'Della Respira';-inkscape-font-specification:'Della Respira, Normal';font-variant-ligatures:normal;font-variant-caps:normal;font-variant-numeric:normal;font-variant-east-asian:normal;fill:#272b22;fill-opacity:1;stroke:none;stroke-width:0.822105">
        <path
           d="m 76.438942,258.87146 q 0.139526,0 0.26355,0.12402 l 17.332275,18.38648 h 0.108521 v -15.79749 q 0,-1.11621 -0.759644,-1.87585 -0.06201,-0.062 -0.26355,-0.15503 -0.201538,-0.093 -0.201538,-0.38757 0,-0.29456 0.201538,-0.29456 h 5.069458 q 0.201538,0 0.201538,0.27905 0,0.26355 -0.07751,0.32556 -0.06201,0.0465 -0.186035,0.10852 -0.124024,0.0465 -0.325562,0.24805 -0.201538,0.20154 -0.434082,0.71314 -0.217041,0.51159 -0.217041,1.03869 v 21.85913 q 0,0.57361 -0.155029,0.69764 -0.139527,0.12402 -0.465088,0.12402 -0.325562,0 -0.5271,-0.18604 l -19.487182,-20.6809 v 18.15393 q 0,1.19372 0.682129,1.87585 0.06201,0.062 0.263549,0.15503 0.201538,0.093 0.201538,0.38757 0,0.29456 -0.201538,0.29456 h -4.991943 q -0.201538,0 -0.201538,-0.26355 0,-0.27905 0.06201,-0.32556 0.07751,-0.062 0.201538,-0.10852 0.124023,-0.062 0.201538,-0.13953 0.775146,-0.77515 0.775146,-1.87585 v -19.96778 q 0,-1.14721 -0.728637,-1.87585 -0.06201,-0.062 -0.26355,-0.15503 -0.201538,-0.093 -0.201538,-0.38757 0,-0.29456 0.201538,-0.29456 z"
           style="font-style:normal;font-variant:normal;font-weight:normal;font-stretch:normal;font-size:31.75px;font-family:'Della Respira';-inkscape-font-specification:'Della Respira, Normal';font-variant-ligatures:normal;font-variant-caps:normal;font-variant-numeric:normal;font-variant-east-asian:normal;fill:#272b22;fill-opacity:1;stroke-width:0.822105"
           id="path2884" />
        <path
           d="m 103.38303,280.34302 q 0,1.03869 0.89917,1.56579 0.89917,0.5116 1.82935,0.5116 0.93018,0 1.37976,-0.0775 0.46509,-0.0775 0.94568,-0.27906 0.89917,-0.37207 1.5968,-0.77514 0,0 0.72864,-0.40308 l -0.89917,-4.12378 q -0.55811,0.21704 -1.37976,0.48059 l -1.48828,0.46509 q -3.61219,1.0852 -3.61219,2.6355 z m 6.18567,-5.17798 q -0.46509,-4.2478 -2.46496,-4.2478 -1.22473,0 -2.13941,0.88366 -0.89917,0.86817 -0.89917,2.04639 l 0.13953,0.63562 q 0,0.12402 -0.31006,0.38757 -0.29456,0.26355 -0.40308,0.17054 l -1.79834,-2.30994 q 0,-0.20154 0.34107,-0.44959 0.35657,-0.24804 0.60461,-0.49609 l 0.37207,-0.35657 q 0.80616,-0.80615 1.13172,-1.02319 l 0.75964,-0.49609 q 1.11621,-0.72864 2.48047,-0.72864 1.99988,0 3.03857,1.0852 0.71314,0.74414 0.99219,1.47278 0.27905,0.71314 0.40308,1.16272 0.26355,0.96118 0.43408,2.23242 l 0.17053,1.19373 q 0.093,0.71313 0.18604,1.33325 0.10852,0.62012 0.13952,0.85266 0.031,0.21704 0.15503,0.79065 0.12403,0.55811 0.23255,0.93018 0.32556,1.10071 0.75964,1.65881 0.43408,0.5426 0.96118,0.5426 0.5426,0 0.75965,-0.31006 0.40307,-0.58911 0.58911,-0.58911 0.093,0 0.31006,0.21704 0.21704,0.21705 0.21704,0.32557 0,0.10852 -0.4961,0.72863 -0.48059,0.60462 -1.10071,1.19373 -0.60461,0.58911 -0.86816,0.58911 -0.99219,0 -1.89136,-0.77515 -0.88366,-0.79065 -1.0852,-1.65881 -0.5116,0.46509 -1.73633,1.13171 -2.41846,1.30225 -3.87573,1.30225 -1.45728,0 -2.46497,-0.41858 -0.99219,-0.41858 -1.65881,-1.28674 -0.65112,-0.86817 -0.65112,-1.81384 0,-0.94568 0.26354,-1.5813 0.26355,-0.63562 0.68213,-1.08521 0.41858,-0.46509 1.0387,-0.85266 0.62012,-0.40308 1.25574,-0.66663 1.33325,-0.5426 2.94555,-0.96118 1.62781,-0.43408 2.48047,-0.75964 z"
           style="font-style:normal;font-variant:normal;font-weight:normal;font-stretch:normal;font-size:31.75px;font-family:'Della Respira';-inkscape-font-specification:'Della Respira, Normal';font-variant-ligatures:normal;font-variant-caps:normal;font-variant-numeric:normal;font-variant-east-asian:normal;fill:#272b22;fill-opacity:1;stroke-width:0.822105"
           id="path2886" />
        <path
           d="m 120.56028,266.73145 q 0.0465,-0.31006 0.55811,-0.31006 0.52709,0 0.52709,0.31006 v 2.75952 h 2.74402 q 0.79065,0 0.79065,0.20153 v 1.36426 q 0,0.20154 -0.79065,0.20154 h -2.74402 v 9.62732 q 0,1.84485 1.08521,2.06189 0.82166,0.17053 1.70532,-0.62012 0.35657,-0.32556 0.4961,-0.15503 0.15503,0.17054 0.21704,0.26355 0.062,0.093 0.062,0.18604 0,0.0775 0,0.12402 0.0155,0.0775 -0.17053,0.26355 l -0.32556,0.27905 q -1.61231,1.39527 -3.1471,1.27124 -1.51929,-0.12402 -2.1394,-1.78283 -0.34107,-0.89917 -0.34107,-2.18592 v -9.33276 h -0.71313 q -0.79065,0 -0.79065,-0.20154 v -1.36426 q 0,-0.20153 0.65112,-0.20153 1.14722,0 1.64331,-0.80616 0.5116,-0.80615 0.68213,-1.95336 z"
           style="font-style:normal;font-variant:normal;font-weight:normal;font-stretch:normal;font-size:31.75px;font-family:'Della Respira';-inkscape-font-specification:'Della Respira, Normal';font-variant-ligatures:normal;font-variant-caps:normal;font-variant-numeric:normal;font-variant-east-asian:normal;fill:#272b22;fill-opacity:1;stroke-width:0.822105"
           id="path2888" />
        <path
           d="m 126.88548,272.07996 0.0155,-0.27906 q 0,-0.0465 1.0852,-0.91467 1.10071,-0.88367 1.89136,-1.39526 h 0.75964 q 0.093,0.093 0.093,0.48059 v 9.47229 q 0,0.97668 0.62012,1.73633 1.24023,1.48828 3.50366,1.48828 1.55029,0 3.48816,-1.0232 l 0.68213,-0.35656 v -9.58081 q 0,-1.13172 -0.75964,-1.42627 -0.20154,-0.0775 -0.32557,-0.15503 -0.12402,-0.0775 -0.12402,-0.35657 0,-0.27905 0.20154,-0.27905 h 3.48816 q 0.093,0 0.093,5.03845 l -0.0155,6.07715 q 0,0.86816 0.5271,1.33325 0.12403,0.10852 0.40308,0.12402 0.27905,0.0155 0.35657,0.093 0.093,0.062 0.093,0.35657 0.0155,0.27905 -0.062,0.32556 l -3.02307,1.5813 q -0.062,0.0465 -0.40308,0.0465 -0.34106,0 -0.40307,-0.062 -0.062,-0.062 -0.062,-0.41858 v -1.34876 q -0.0155,0 -0.24805,0.17053 -2.89905,1.90686 -4.86792,1.90686 -1.31775,0 -2.651,-0.66662 -1.33325,-0.68213 -2.20142,-1.82935 -0.86816,-1.14721 -0.86816,-2.38745 v -6.21667 q 0,-0.65113 -0.24805,-0.93018 -0.24805,-0.29456 -0.5426,-0.29456 -0.29456,-0.0155 -0.37207,-0.0775 -0.12402,-0.093 -0.12402,-0.23254 z"
           style="font-style:normal;font-variant:normal;font-weight:normal;font-stretch:normal;font-size:31.75px;font-family:'Della Respira';-inkscape-font-specification:'Della Respira, Normal';font-variant-ligatures:normal;font-variant-caps:normal;font-variant-numeric:normal;font-variant-east-asian:normal;fill:#272b22;fill-opacity:1;stroke-width:0.822105"
           id="path2890" />
        <path
           d="m 145.36497,272.07996 0.0155,-0.27906 q 0,-0.0775 0.0775,-0.12402 0.093,-0.062 0.10853,-0.0775 l 2.79052,-2.06189 q 0.062,-0.0465 0.34107,-0.0465 0.29455,0 0.40307,0.0775 0.10852,0.062 0.10852,0.40308 v 2.6665 q 0.093,-0.15503 0.24805,-0.34106 1.11621,-1.39527 2.32544,-2.15491 1.20923,-0.75964 2.75952,-0.75964 0.4961,0 0.5426,0.12402 0.26355,0.71313 0.43409,1.34875 l 0.48059,1.82935 q 0.0465,0.17053 -0.24805,0.34106 -0.27905,0.15503 -0.43408,0.13953 -0.15503,-0.0155 -0.32556,-0.29455 l -0.17054,-0.27906 q -0.83715,-0.77514 -1.95336,-0.60461 -1.10071,0.15503 -2.0929,0.80615 -0.97668,0.65112 -1.44177,1.41077 -0.0155,0.031 -0.0775,0.12402 -0.0465,0.0775 -0.0465,0.10852 v 7.11585 q 0,0.0775 -0.0155,0.34106 0,0.24805 0,0.32556 0.12402,0.97669 0.66663,1.20923 0.5426,0.23254 0.5581,0.40308 0,0.43408 -0.20154,0.43408 h -4.58886 q -0.20154,0 -0.20154,-0.27905 0,-0.27906 0.12402,-0.35657 0.12403,-0.0775 0.31006,-0.15503 0.20154,-0.0775 0.31006,-0.18604 0.23254,-0.23254 0.35657,-0.5271 0.13952,-0.31005 0.12402,-0.72863 0,-0.41858 0,-0.48059 v -8.20105 q -0.0155,-0.5116 -0.26355,-0.71314 -0.23254,-0.21704 -0.5116,-0.23254 -0.27905,-0.0155 -0.37207,-0.0775 -0.13952,-0.10852 -0.13952,-0.24804 z"
           style="font-style:normal;font-variant:normal;font-weight:normal;font-stretch:normal;font-size:31.75px;font-family:'Della Respira';-inkscape-font-specification:'Della Respira, Normal';font-variant-ligatures:normal;font-variant-caps:normal;font-variant-numeric:normal;font-variant-east-asian:normal;fill:#272b22;fill-opacity:1;stroke-width:0.822105"
           id="path2892" />
        <path
           d="m 159.55015,280.34302 q 0,1.03869 0.89917,1.56579 0.89917,0.5116 1.82934,0.5116 0.93018,0 1.37976,-0.0775 0.46509,-0.0775 0.94568,-0.27906 0.89917,-0.37207 1.5968,-0.77514 0,0 0.72864,-0.40308 l -0.89917,-4.12378 q -0.5581,0.21704 -1.37976,0.48059 l -1.48828,0.46509 q -3.61218,1.0852 -3.61218,2.6355 z m 6.18567,-5.17798 q -0.46509,-4.2478 -2.46497,-4.2478 -1.22473,0 -2.1394,0.88366 -0.89917,0.86817 -0.89917,2.04639 l 0.13952,0.63562 q 0,0.12402 -0.31006,0.38757 -0.29455,0.26355 -0.40307,0.17054 l -1.79834,-2.30994 q 0,-0.20154 0.34106,-0.44959 0.35657,-0.24804 0.60462,-0.49609 l 0.37207,-0.35657 q 0.80615,-0.80615 1.13171,-1.02319 l 0.75965,-0.49609 q 1.11621,-0.72864 2.48046,-0.72864 1.99988,0 3.03858,1.0852 0.71313,0.74414 0.99219,1.47278 0.27905,0.71314 0.40307,1.16272 0.26355,0.96118 0.43408,2.23242 l 0.17054,1.19373 q 0.093,0.71313 0.18603,1.33325 0.10852,0.62012 0.13953,0.85266 0.031,0.21704 0.15503,0.79065 0.12402,0.55811 0.23254,0.93018 0.32556,1.10071 0.75964,1.65881 0.43409,0.5426 0.96119,0.5426 0.5426,0 0.75964,-0.31006 0.40308,-0.58911 0.58911,-0.58911 0.093,0 0.31006,0.21704 0.21704,0.21705 0.21704,0.32557 0,0.10852 -0.49609,0.72863 -0.48059,0.60462 -1.10071,1.19373 -0.60462,0.58911 -0.86817,0.58911 -0.99218,0 -1.89135,-0.77515 -0.88367,-0.79065 -1.08521,-1.65881 -0.51159,0.46509 -1.73633,1.13171 -2.41845,1.30225 -3.87573,1.30225 -1.45727,0 -2.46496,-0.41858 -0.99219,-0.41858 -1.65882,-1.28674 -0.65112,-0.86817 -0.65112,-1.81384 0,-0.94568 0.26355,-1.5813 0.26355,-0.63562 0.68213,-1.08521 0.41858,-0.46509 1.03869,-0.85266 0.62012,-0.40308 1.25574,-0.66663 1.33325,-0.5426 2.94556,-0.96118 1.62781,-0.43408 2.48047,-0.75964 z"
           style="font-style:normal;font-variant:normal;font-weight:normal;font-stretch:normal;font-size:31.75px;font-family:'Della Respira';-inkscape-font-specification:'Della Respira, Normal';font-variant-ligatures:normal;font-variant-caps:normal;font-variant-numeric:normal;font-variant-east-asian:normal;fill:#272b22;fill-opacity:1;stroke-width:0.822105"
           id="path2894" />
        <path
           d="m 174.80503,261.46045 0.0155,-0.27905 q 0,-0.0775 0.0775,-0.12403 0.093,-0.062 0.10852,-0.0775 l 2.79053,-2.06189 q 0.062,-0.0465 0.15503,-0.0465 0.68212,0 0.68212,0.48059 v 22.2002 q 0,0.10852 -0.0155,0.34106 0,0.23254 0,0.32556 0.093,1.0232 0.65112,1.20923 0.55811,0.23254 0.55811,0.40308 0,0.43408 -0.20154,0.43408 h -4.55786 q -0.20154,0 -0.20154,-0.27905 0,-0.27906 0.12403,-0.35657 0.12402,-0.0775 0.32556,-0.15503 0.20154,-0.0775 0.31006,-0.18604 0.12402,-0.12402 0.21704,-0.26355 0.093,-0.15502 0.13952,-0.24804 0.0465,-0.10852 0.062,-0.29456 0.031,-0.20154 0.031,-0.26355 v -19.48718 q 0,-0.5116 -0.24805,-0.71314 -0.23254,-0.21704 -0.51159,-0.23254 -0.27906,-0.0155 -0.37207,-0.093 -0.13953,-0.093 -0.13953,-0.23254 z"
           style="font-style:normal;font-variant:normal;font-weight:normal;font-stretch:normal;font-size:31.75px;font-family:'Della Respira';-inkscape-font-specification:'Della Respira, Normal';font-variant-ligatures:normal;font-variant-caps:normal;font-variant-numeric:normal;font-variant-east-asian:normal;fill:#272b22;fill-opacity:1;stroke-width:0.822105"
           id="path2896" />
        <path
           d="m 213.14378,281.45923 q 0,0.15503 -0.23255,0.15503 -0.21704,0 -0.29455,0.031 -1.64331,1.31775 -3.99976,2.27893 -2.35644,0.94568 -4.99194,0.94568 -2.6355,0 -5.10047,-1.0852 -2.46496,-1.10071 -4.15478,-2.93006 -1.68982,-1.82934 -2.66651,-4.2788 -0.96118,-2.46497 -0.96118,-5.10047 0,-2.6355 1.0387,-5.03845 1.0542,-2.41846 2.80603,-4.17029 1.75183,-1.76733 4.15478,-2.82153 2.40296,-1.0697 4.85242,-1.0697 2.91455,0 5.87561,1.11621 l 0.71314,0.27905 q 0.15503,0.062 0.43408,-0.12402 0.27905,-0.18604 0.58911,-0.18604 0.32556,0 0.48059,0.29456 0.062,0.0465 0.0465,0.32556 -0.031,0.43408 0.37207,2.07739 l 0.38757,1.67432 q 0.15503,0.68213 0.15503,0.86816 0,0.093 -0.40307,0.29456 -0.38758,0.18603 -0.44959,0.0775 -1.28674,-2.24792 -3.24011,-3.10058 -1.93787,-0.85267 -4.85242,-0.85267 -2.89905,0 -5.23999,1.31775 -2.34094,1.31775 -3.61218,3.6742 -1.27124,2.34094 -1.27124,5.3175 0,1.95337 0.89917,3.95325 0.89917,1.98438 2.30994,3.48816 1.42626,1.50378 3.30212,2.46497 1.87585,0.94567 3.61218,0.94567 1.73633,0 3.82923,-0.86816 2.09289,-0.88367 2.60449,-1.48828 v -6.3407 q 0,-1.13171 -0.74414,-1.87585 -0.062,-0.062 -0.26355,-0.15503 -0.20154,-0.093 -0.20154,-0.38758 0,-0.29455 0.20154,-0.29455 h 5.02295 q 0.20153,0 0.20153,0.27905 0,0.26355 -0.0775,0.32556 -0.062,0.0465 -0.18604,0.10852 -0.12402,0.0465 -0.32556,0.24805 -0.18603,0.18603 -0.40307,0.71313 -0.21704,0.5116 -0.21704,1.0387 z"
           style="font-style:normal;font-variant:normal;font-weight:normal;font-stretch:normal;font-size:31.75px;font-family:'Della Respira';-inkscape-font-specification:'Della Respira, Normal';font-variant-ligatures:normal;font-variant-caps:normal;font-variant-numeric:normal;font-variant-east-asian:normal;fill:#272b22;fill-opacity:1;stroke-width:0.822105"
           id="path2898" />
        <path
           d="m 221.08128,271.90942 q -1.00769,0.63562 -1.48829,1.67432 -0.48059,1.02319 -0.48059,2.60449 0,1.5813 0.86817,3.1626 0.88366,1.5813 2.40295,2.51147 1.53479,0.91468 3.03858,0.91468 1.51928,0 2.46496,-0.68213 0.96118,-0.68213 1.45728,-1.76734 0.51159,-1.0852 0.51159,-2.38745 0,-2.74402 -1.75183,-4.71289 -1.73633,-1.96887 -4.66638,-1.96887 -1.34875,0 -2.35644,0.65112 z m -1.92237,10.46448 q -1.02319,-0.99219 -1.65881,-2.38745 -0.62012,-1.39526 -0.62012,-3.30212 0,-1.90686 0.97669,-3.7052 0.97668,-1.79834 2.80603,-2.80603 1.82934,-1.00769 3.79821,-1.00769 3.59668,0 5.72059,2.26342 2.1239,2.24793 2.1239,5.47254 0.0155,3.22461 -2.23242,5.44153 -2.24793,2.20141 -5.67408,2.20141 -1.45727,0 -2.83703,-0.58911 -1.36426,-0.58911 -2.40296,-1.5813 z"
           style="font-style:normal;font-variant:normal;font-weight:normal;font-stretch:normal;font-size:31.75px;font-family:'Della Respira';-inkscape-font-specification:'Della Respira, Normal';font-variant-ligatures:normal;font-variant-caps:normal;font-variant-numeric:normal;font-variant-east-asian:normal;fill:#272b22;fill-opacity:1;stroke-width:0.822105"
           id="path2900" />
        <path
           d="m 238.19651,271.90942 q -1.00769,0.63562 -1.48828,1.67432 -0.48059,1.02319 -0.48059,2.60449 0,1.5813 0.86816,3.1626 0.88367,1.5813 2.40296,2.51147 1.53479,0.91468 3.03857,0.91468 1.51929,0 2.46497,-0.68213 0.96118,-0.68213 1.45727,-1.76734 0.5116,-1.0852 0.5116,-2.38745 0,-2.74402 -1.75183,-4.71289 -1.73633,-1.96887 -4.66638,-1.96887 -1.34876,0 -2.35645,0.65112 z m -1.92236,10.46448 q -1.0232,-0.99219 -1.65882,-2.38745 -0.62011,-1.39526 -0.62011,-3.30212 0,-1.90686 0.97668,-3.7052 0.97669,-1.79834 2.80603,-2.80603 1.82935,-1.00769 3.79822,-1.00769 3.59668,0 5.72058,2.26342 2.1239,2.24793 2.1239,5.47254 0.0155,3.22461 -2.23242,5.44153 -2.24793,2.20141 -5.67407,2.20141 -1.45728,0 -2.83704,-0.58911 -1.36426,-0.58911 -2.40295,-1.5813 z"
           style="font-style:normal;font-variant:normal;font-weight:normal;font-stretch:normal;font-size:31.75px;font-family:'Della Respira';-inkscape-font-specification:'Della Respira, Normal';font-variant-ligatures:normal;font-variant-caps:normal;font-variant-numeric:normal;font-variant-east-asian:normal;fill:#272b22;fill-opacity:1;stroke-width:0.822105"
           id="path2902" />
        <path
           d="m 261.51292,261.46045 0.0155,-0.27905 q 0,-0.0775 0.0775,-0.12403 0.093,-0.062 0.10852,-0.0775 l 2.79053,-2.06189 q 0.062,-0.0465 0.32556,-0.0465 0.27906,0 0.40308,0.0775 0.12402,0.062 0.12402,0.40308 0,13.96814 0.0465,21.61108 0.0465,0.24805 -0.0465,0.23255 -0.0155,0 0.0775,0.093 0.10852,0.0775 0.38757,0.093 0.27905,0.0155 0.37207,0.093 0.093,0.062 0.093,0.35657 0,0.27905 -0.0775,0.32556 l -2.57348,2.1084 q -0.062,0.0465 -0.40308,0.0465 -0.32556,0 -0.40307,-0.062 -0.062,-0.0775 -0.062,-0.20154 0,-0.13953 0.0155,-0.26355 0.031,-0.13953 -0.0155,-0.34107 -0.0465,-0.20153 -0.12402,-0.21704 -0.062,-0.031 -0.24805,0.093 l -0.41858,0.26355 q -1.58129,0.96118 -3.1936,0.96118 -1.6123,0 -2.99206,-0.58911 -1.36426,-0.58911 -2.40296,-1.5813 -1.02319,-0.99219 -1.65881,-2.38745 -0.62012,-1.39526 -0.62012,-3.30212 0,-1.90686 0.97669,-3.7052 0.97668,-1.79834 2.80603,-2.80603 1.82934,-1.00769 4.21679,-1.00769 0.94568,0 1.98438,0.46508 1.0542,0.44959 1.5968,0.99219 h 0.17053 q 0,-5.05395 -0.062,-7.89099 0,-0.49609 -0.24805,-0.71314 -0.24804,-0.21704 -0.5271,-0.23254 -0.27905,-0.0155 -0.37207,-0.093 -0.13952,-0.093 -0.13952,-0.23254 z m 1.27124,19.28564 0.0465,-6.75927 q -0.72864,-1.27124 -2.0929,-1.99988 -1.36426,-0.72864 -3.06958,-0.72864 -2.24792,0 -3.61218,2.29443 -0.71314,1.22474 -0.71314,2.32544 0,2.86805 1.78284,4.68189 1.78284,1.79834 4.58887,1.79834 0.79065,0 1.6278,-0.48059 0.85267,-0.48059 1.44178,-1.13172 z"
           style="font-style:normal;font-variant:normal;font-weight:normal;font-stretch:normal;font-size:31.75px;font-family:'Della Respira';-inkscape-font-specification:'Della Respira, Normal';font-variant-ligatures:normal;font-variant-caps:normal;font-variant-numeric:normal;font-variant-east-asian:normal;fill:#272b22;fill-opacity:1;stroke-width:0.822105"
           id="path2904" />
        <path
           d="m 277.71348,272.65356 q 0,0.17054 -0.31006,0.17054 -0.31006,-0.0155 -0.37207,-0.0155 -0.18604,0 -0.27905,-0.26355 -0.34107,-0.80615 -1.42627,-1.31775 -1.08521,-0.52709 -2.1239,-0.52709 -1.0387,0 -1.79834,0.51159 -0.75965,0.5116 -0.75965,1.30225 0,0.77514 0.69763,1.30224 0.69764,0.5271 1.41077,0.91468 0.72864,0.37207 0.96118,0.51159 l 1.47278,0.83716 q 1.98438,1.08521 2.6355,2.29444 0.44958,0.83715 0.44958,2.06189 0,1.20922 -0.69763,2.21691 -1.34875,1.93787 -4.51135,1.93787 -1.61231,0 -3.87573,-0.55811 -0.062,-0.031 -0.21704,-0.062 -0.15503,-0.031 -0.29456,-0.093 -0.12402,-0.062 -0.13953,-0.32557 -0.0155,-0.26355 -0.20153,-1.0852 -0.18604,-0.83716 -0.18604,-1.0697 0,-0.23255 0.031,-0.27906 0.0465,-0.062 0.093,-0.093 0.0465,-0.0465 0.13953,-0.0775 0.093,-0.0465 0.13953,-0.062 0.0465,-0.0155 0.13952,-0.0465 0.35657,-0.10852 0.65113,0.35657 0.31005,0.44958 1.75183,1.02319 1.45727,0.55811 2.51147,0.55811 1.0542,0 1.70532,-0.5271 0.66663,-0.5426 0.66663,-1.44177 0,-1.25574 -1.50378,-2.04639 l -2.79053,-1.48828 q -1.13172,-0.63562 -1.53479,-0.97669 -0.96118,-0.83716 -1.34876,-1.5968 -0.38757,-0.75964 -0.38757,-1.72082 0,-1.89136 1.39526,-2.83704 1.41077,-0.94568 3.86023,-0.94568 1.08521,0 2.38745,0.15503 1.31775,0.15503 1.62781,0.48059 0.0465,0.0465 0.0465,1.17822 0.0155,1.13172 -0.0155,1.64331 z"
           style="font-style:normal;font-variant:normal;font-weight:normal;font-stretch:normal;font-size:31.75px;font-family:'Della Respira';-inkscape-font-specification:'Della Respira, Normal';font-variant-ligatures:normal;font-variant-caps:normal;font-variant-numeric:normal;font-variant-east-asian:normal;fill:#272b22;fill-opacity:1;stroke-width:0.822105"
           id="path2906" />
      </g>
    </g>
  </g>
</svg>
